<svg width="72" height="72" viewBox="0 0 72 72" fill="none" xmlns="http://www.w3.org/2000/svg">
<path d="M46.958 12.625L50.114 17.81V54.778H41.917L42.205 20.759L46.958 12.625ZM25.18 12.875L21.755 17.68V54.647L30.063 54.281L29.633 21.02L25.18 12.875Z" fill="#D0CFCE"/>
<path d="M28.315 57.438C28.315 57.438 29.575 25.54 29.325 17.541C29.085 9.91399 35.965 6.07599 35.965 6.07599C35.965 6.07599 42.845 9.91299 42.605 17.541C42.355 25.54 43.615 57.438 43.615 57.438H28.315Z" fill="#F4AA41"/>
<path d="M39.51 59.87L55.608 58.617C55.794 55.443 52.34 51.659 52.34 51.659C44.09 45.722 42.757 42.239 42.757 42.239L39.34 33.057M32.43 59.841L16.392 58.617C16.207 55.443 19.66 51.659 19.66 51.659C27.91 45.722 29.243 42.239 29.243 42.239L32.66 33.057" fill="white"/>
<path d="M40.03 65.778C40.02 65.845 40.02 65.883 40.02 65.883H31.91C31.91 65.883 31.91 65.845 31.9 65.769C31.85 65.094 31.63 61.589 32.43 59.841C32.41 53.116 32.37 30.841 32.94 25.834C33.6 19.916 35.96 19.042 35.96 19.042C35.96 19.042 38.33 19.916 39 25.834C39.56 30.85 39.53 53.173 39.51 59.87C40.29 61.627 40.07 65.123 40.03 65.778Z" fill="white"/>
<path d="M45.43 17.26L47.7 13.14L50.11 17.81V49.98M21.75 50.09V17.68L24.17 13.01L26.44 17.13M43.09 42.86C42.78 33.34 42.46 21.9 42.6 17.54C42.84 9.91002 35.96 6.08002 35.96 6.08002C35.96 6.08002 29.08 9.91002 29.32 17.54C29.46 21.92 29.14 33.44 28.83 42.99C29.14 42.5 29.24 42.24 29.24 42.24L32.6 33.23V33.22C32.67 29.9 32.78 27.21 32.94 25.83C33.6 19.92 35.96 19.04 35.96 19.04C35.96 19.04 38.33 19.92 39 25.83C39.15 27.19 39.26 29.82 39.34 33.06C39.52 40.6 39.53 51.47 39.51 57.44" stroke="black" stroke-width="1.949" stroke-miterlimit="10" stroke-linecap="round" stroke-linejoin="round"/>
<path d="M40.173 59.813L55.608 58.617C55.793 55.443 52.34 51.659 52.34 51.659C44.09 45.722 42.757 42.239 42.757 42.239L39.34 33.057M32.43 57.44C32.41 51.52 32.42 40.76 32.6 33.23M32.6 33.23L29.24 42.24C29.24 42.24 29.14 42.5 28.83 42.99V43C28.1 44.16 26.22 46.61 21.75 50.09C21.11 50.59 20.41 51.12 19.66 51.66C19.66 51.66 16.21 55.44 16.39 58.62L31.83 59.81M32.6 33.23V33.22L32.66 33.06" stroke="black" stroke-width="1.949" stroke-miterlimit="10" stroke-linecap="round" stroke-linejoin="round"/>
<path d="M40.03 65.78C40.02 65.84 40.02 65.88 40.02 65.88H31.91C31.91 65.88 31.91 65.84 31.9 65.77C31.85 65.09 31.63 61.59 32.43 59.84V57.44C32.41 51.52 32.42 40.76 32.6 33.23V33.22C32.67 29.9 32.78 27.21 32.94 25.83C33.6 19.92 35.96 19.04 35.96 19.04C35.96 19.04 38.33 19.92 39 25.83C39.15 27.19 39.26 29.82 39.34 33.06C39.52 40.6 39.53 51.47 39.51 57.44V59.87C40.29 61.63 40.07 65.12 40.03 65.78Z" stroke="black" stroke-width="1.949" stroke-miterlimit="10" stroke-linecap="round" stroke-linejoin="round"/>
</svg>
